<mxfile host="Electron" modified="2024-02-12T02:43:07.626Z" agent="Mozilla/5.0 (Windows NT 10.0; Win64; x64) AppleWebKit/537.36 (KHTML, like Gecko) draw.io/22.1.16 Chrome/120.0.6099.109 Electron/28.1.0 Safari/537.36" etag="vADH53kYtcAOAYb2d__c" version="22.1.16" type="device">
  <diagram name="Page-1" id="Wrtcy-asVPLgj-cO_tIz">
    <mxGraphModel dx="1084" dy="1184" grid="1" gridSize="10" guides="1" tooltips="1" connect="1" arrows="1" fold="1" page="1" pageScale="1" pageWidth="850" pageHeight="1100" math="0" shadow="0">
      <root>
        <mxCell id="0" />
        <mxCell id="1" parent="0" />
        <mxCell id="cmE34XOOYvuDCDGMnDvv-4" style="edgeStyle=orthogonalEdgeStyle;rounded=0;orthogonalLoop=1;jettySize=auto;html=1;" edge="1" parent="1" source="cmE34XOOYvuDCDGMnDvv-1" target="cmE34XOOYvuDCDGMnDvv-3">
          <mxGeometry relative="1" as="geometry" />
        </mxCell>
        <mxCell id="cmE34XOOYvuDCDGMnDvv-1" value="EC2 Instance" style="fillColor=#dae8fc;strokeColor=#6c8ebf;dashed=1;verticalAlign=bottom;fontStyle=0;whiteSpace=wrap;html=1;" vertex="1" parent="1">
          <mxGeometry x="280" y="485" width="130" height="130" as="geometry" />
        </mxCell>
        <mxCell id="cmE34XOOYvuDCDGMnDvv-2" value="CloudWatch &lt;b&gt;&lt;font style=&quot;font-size: 17px;&quot;&gt;Logs Agent&lt;/font&gt;&lt;/b&gt;" style="rounded=0;whiteSpace=wrap;html=1;" vertex="1" parent="1">
          <mxGeometry x="305" y="505" width="80" height="60" as="geometry" />
        </mxCell>
        <mxCell id="cmE34XOOYvuDCDGMnDvv-8" style="edgeStyle=orthogonalEdgeStyle;rounded=0;orthogonalLoop=1;jettySize=auto;html=1;" edge="1" parent="1" source="cmE34XOOYvuDCDGMnDvv-3" target="cmE34XOOYvuDCDGMnDvv-5">
          <mxGeometry relative="1" as="geometry" />
        </mxCell>
        <mxCell id="cmE34XOOYvuDCDGMnDvv-3" value="CloudWatch Logs" style="sketch=0;points=[[0,0,0],[0.25,0,0],[0.5,0,0],[0.75,0,0],[1,0,0],[0,1,0],[0.25,1,0],[0.5,1,0],[0.75,1,0],[1,1,0],[0,0.25,0],[0,0.5,0],[0,0.75,0],[1,0.25,0],[1,0.5,0],[1,0.75,0]];points=[[0,0,0],[0.25,0,0],[0.5,0,0],[0.75,0,0],[1,0,0],[0,1,0],[0.25,1,0],[0.5,1,0],[0.75,1,0],[1,1,0],[0,0.25,0],[0,0.5,0],[0,0.75,0],[1,0.25,0],[1,0.5,0],[1,0.75,0]];outlineConnect=0;fontColor=#232F3E;fillColor=#E7157B;strokeColor=#ffffff;dashed=0;verticalLabelPosition=bottom;verticalAlign=top;align=center;html=1;fontSize=12;fontStyle=0;aspect=fixed;shape=mxgraph.aws4.resourceIcon;resIcon=mxgraph.aws4.cloudwatch_2;" vertex="1" parent="1">
          <mxGeometry x="490" y="511" width="78" height="78" as="geometry" />
        </mxCell>
        <mxCell id="cmE34XOOYvuDCDGMnDvv-9" style="edgeStyle=orthogonalEdgeStyle;rounded=0;orthogonalLoop=1;jettySize=auto;html=1;" edge="1" parent="1" source="cmE34XOOYvuDCDGMnDvv-5" target="cmE34XOOYvuDCDGMnDvv-6">
          <mxGeometry relative="1" as="geometry" />
        </mxCell>
        <mxCell id="cmE34XOOYvuDCDGMnDvv-5" value="Metric Filters" style="sketch=0;outlineConnect=0;fontColor=#232F3E;gradientColor=none;fillColor=#DD344C;strokeColor=none;dashed=0;verticalLabelPosition=bottom;verticalAlign=top;align=center;html=1;fontSize=12;fontStyle=0;aspect=fixed;pointerEvents=1;shape=mxgraph.aws4.filtering_rule;" vertex="1" parent="1">
          <mxGeometry x="670" y="511" width="78" height="78" as="geometry" />
        </mxCell>
        <mxCell id="cmE34XOOYvuDCDGMnDvv-6" value="CloudWatch Alarm" style="sketch=0;outlineConnect=0;fontColor=#232F3E;gradientColor=none;fillColor=#E7157B;strokeColor=none;dashed=0;verticalLabelPosition=bottom;verticalAlign=top;align=center;html=1;fontSize=12;fontStyle=0;aspect=fixed;pointerEvents=1;shape=mxgraph.aws4.alarm;" vertex="1" parent="1">
          <mxGeometry x="850" y="511" width="78" height="78" as="geometry" />
        </mxCell>
        <mxCell id="cmE34XOOYvuDCDGMnDvv-7" value="SNS" style="sketch=0;points=[[0,0,0],[0.25,0,0],[0.5,0,0],[0.75,0,0],[1,0,0],[0,1,0],[0.25,1,0],[0.5,1,0],[0.75,1,0],[1,1,0],[0,0.25,0],[0,0.5,0],[0,0.75,0],[1,0.25,0],[1,0.5,0],[1,0.75,0]];outlineConnect=0;fontColor=#232F3E;fillColor=#E7157B;strokeColor=#ffffff;dashed=0;verticalLabelPosition=bottom;verticalAlign=top;align=center;html=1;fontSize=12;fontStyle=0;aspect=fixed;shape=mxgraph.aws4.resourceIcon;resIcon=mxgraph.aws4.sns;" vertex="1" parent="1">
          <mxGeometry x="1030" y="511" width="78" height="78" as="geometry" />
        </mxCell>
        <mxCell id="cmE34XOOYvuDCDGMnDvv-10" style="edgeStyle=orthogonalEdgeStyle;rounded=0;orthogonalLoop=1;jettySize=auto;html=1;entryX=0;entryY=0.5;entryDx=0;entryDy=0;entryPerimeter=0;" edge="1" parent="1" source="cmE34XOOYvuDCDGMnDvv-6" target="cmE34XOOYvuDCDGMnDvv-7">
          <mxGeometry relative="1" as="geometry" />
        </mxCell>
      </root>
    </mxGraphModel>
  </diagram>
</mxfile>
